<svg transform="rotate(180)"
	 xmlns="http://www.w3.org/2000/svg" xmlns:xlink="http://www.w3.org/1999/xlink" viewBox="0 0 128 128"
	 height="300px"
	 width="300px"
	xml:space="preserve">
<style type="text/css">
	.st0{fill:#FFFFFF;}
</style>
<g>
	<path class="st0" d="M40.3,127.6c48.3,0,74.7-49,74.7-91.4c0-1.4,0-2.8-0.1-4.2c5.1-4.5,9.6-10.2,13.1-16.6
		c-4.8,2.6-9.9,4.3-15.1,5.1c5.5-4,9.6-10.3,11.5-17.8c-5.2,3.7-10.8,6.4-16.7,7.8c-8.1-10.6-21-13.1-31.5-6.3
		C65.8,11.1,60.4,25.7,63,39.8C41.9,38.5,22.2,26.3,8.9,6.3C1.9,21,5.5,39.8,17,49.2c-4.1-0.2-8.2-1.6-11.8-4c0,0.1,0,0.3,0,0.4
		C5.2,60.8,14,74,26.2,77c-3.9,1.3-7.9,1.5-11.9,0.5c3.4,13.1,13.3,22.1,24.5,22.3c-9.3,8.9-20.8,13.8-32.6,13.7
		c-2.1,0-4.2-0.1-6.3-0.4C12,122.6,26,127.6,40.3,127.6"/>
</g>
</svg>
